<?xml version="1.0" encoding="UTF-8"?>
<svg xmlns="http://www.w3.org/2000/svg" id="Layer_1" data-name="Layer 1" viewBox="0 0 24 24">
  <path fill="#0D5BFF" d="M21.764,3.761c-.056-.159-.188-.279-.353-.32-.178-.043-4.404-1.063-9.411-1.063C7.083,2.378,2.772,3.397,2.591,3.441c-.166,.04-.3,.162-.356,.323-.05,.146-1.235,3.634-1.235,8.236s1.185,8.089,1.235,8.236c.056,.162,.191,.284,.358,.324,.045,.011,4.579,1.062,9.406,1.062,4.996,0,9.232-1.02,9.41-1.063,.165-.041,.299-.161,.354-.322,.05-.145,1.235-3.606,1.235-8.237,0-4.67-1.186-8.095-1.236-8.239Zm-9.764-.383c4.178,0,7.894,.75,8.903,.974,.094,.305,.257,.869,.428,1.635-.385,.42-2.016,2.152-4.422,4.013-1.953,1.51-4.185,2.814-4.909,3.227-.725-.412-2.957-1.716-4.909-3.227-2.396-1.853-4.024-3.578-4.418-4.008,.17-.765,.331-1.332,.424-1.64,1.026-.222,4.796-.974,8.902-.974Zm8.902,16.271c-1.014,.223-4.734,.973-8.902,.973-4.036,0-7.864-.754-8.903-.976-.27-.886-1.097-3.914-1.097-7.646,0-1.825,.199-3.484,.433-4.806,.746,.768,2.152,2.132,4.046,3.596,2.421,1.873,5.165,3.384,5.281,3.447,.075,.041,.157,.062,.24,.062s.166-.021,.24-.062c.116-.063,2.859-1.574,5.28-3.447,1.898-1.468,3.306-2.834,4.051-3.601,.232,1.313,.428,2.967,.428,4.811,0,3.75-.829,6.769-1.098,7.649Z"/>
</svg>
